<?xml version="1.0" encoding="UTF-8"?>
<svg width="107px" height="12px" viewBox="0 0 107 12" version="1.1" xmlns="http://www.w3.org/2000/svg" xmlns:xlink="http://www.w3.org/1999/xlink">
    <title>Next.js playground</title>
    <g id="Page-1" stroke="none" stroke-width="1" fill="none" fill-rule="evenodd">
        <g id="Next.js-playground" fill="#000000" fill-rule="nonzero">
            <path d="M2.24414062,1.04296875 L5.58984375,6.10546875 L5.58984375,0.99609375 C5.58984375,0.6640625 5.66113281,0.415039062 5.80371094,0.249023438 C5.94628906,0.0830078125 6.13867188,0 6.38085938,0 C6.63085938,0 6.828125,0.0830078125 6.97265625,0.249023438 C7.1171875,0.415039062 7.18945312,0.6640625 7.18945312,0.99609375 L7.18945312,7.75195312 C7.18945312,8.50585938 6.87695312,8.8828125 6.25195312,8.8828125 C6.09570312,8.8828125 5.95507812,8.86035156 5.83007812,8.81542969 C5.70507812,8.77050781 5.58789062,8.69921875 5.47851562,8.6015625 C5.36914062,8.50390625 5.26757812,8.38964844 5.17382812,8.25878906 C5.08007812,8.12792969 4.98632812,7.99414062 4.89257812,7.85742188 L1.62890625,2.85351562 L1.62890625,7.88671875 C1.62890625,8.21484375 1.55273438,8.46289062 1.40039062,8.63085938 C1.24804688,8.79882812 1.05273438,8.8828125 0.814453125,8.8828125 C0.568359375,8.8828125 0.37109375,8.79785156 0.22265625,8.62792969 C0.07421875,8.45800781 0,8.2109375 0,7.88671875 L0,1.25976562 C0,0.978515625 0.03125,0.7578125 0.09375,0.59765625 C0.16796875,0.421875 0.291015625,0.278320312 0.462890625,0.166992188 C0.634765625,0.0556640625 0.8203125,0 1.01953125,0 C1.17578125,0 1.30957031,0.025390625 1.42089844,0.076171875 C1.53222656,0.126953125 1.62988281,0.1953125 1.71386719,0.28125 C1.79785156,0.3671875 1.88378906,0.478515625 1.97167969,0.615234375 C2.05957031,0.751953125 2.15039062,0.89453125 2.24414062,1.04296875 Z" id="Path"></path>
            <path d="M13.4472656,6.0234375 L10.3183594,6.0234375 C10.3222656,6.38671875 10.3955078,6.70703125 10.5380859,6.984375 C10.6806641,7.26171875 10.8701172,7.47070312 11.1064453,7.61132812 C11.3427734,7.75195312 11.6035156,7.82226562 11.8886719,7.82226562 C12.0800781,7.82226562 12.2548828,7.79980469 12.4130859,7.75488281 C12.5712891,7.70996094 12.7246094,7.63964844 12.8730469,7.54394531 C13.0214844,7.44824219 13.1582031,7.34570312 13.2832031,7.23632812 C13.4082031,7.12695312 13.5703125,6.97851562 13.7695312,6.79101562 C13.8515625,6.72070312 13.96875,6.68554688 14.1210938,6.68554688 C14.2851562,6.68554688 14.4179688,6.73046875 14.5195312,6.8203125 C14.6210938,6.91015625 14.671875,7.03710938 14.671875,7.20117188 C14.671875,7.34570312 14.6152344,7.51464844 14.5019531,7.70800781 C14.3886719,7.90136719 14.2177734,8.08691406 13.9892578,8.26464844 C13.7607422,8.44238281 13.4736328,8.58984375 13.1279297,8.70703125 C12.7822266,8.82421875 12.3847656,8.8828125 11.9355469,8.8828125 C10.9082031,8.8828125 10.109375,8.58984375 9.5390625,8.00390625 C8.96875,7.41796875 8.68359375,6.62304688 8.68359375,5.61914062 C8.68359375,5.14648438 8.75390625,4.70800781 8.89453125,4.30371094 C9.03515625,3.89941406 9.24023438,3.55273438 9.50976562,3.26367188 C9.77929688,2.97460938 10.1113281,2.75292969 10.5058594,2.59863281 C10.9003906,2.44433594 11.3378906,2.3671875 11.8183594,2.3671875 C12.4433594,2.3671875 12.9794922,2.49902344 13.4267578,2.76269531 C13.8740234,3.02636719 14.2089844,3.3671875 14.4316406,3.78515625 C14.6542969,4.203125 14.765625,4.62890625 14.765625,5.0625 C14.765625,5.46484375 14.6503906,5.72558594 14.4199219,5.84472656 C14.1894531,5.96386719 13.8652344,6.0234375 13.4472656,6.0234375 Z M10.3183594,5.11523438 L13.21875,5.11523438 C13.1796875,4.56835938 13.0322266,4.15917969 12.7763672,3.88769531 C12.5205078,3.61621094 12.1835938,3.48046875 11.765625,3.48046875 C11.3671875,3.48046875 11.0400391,3.61816406 10.7841797,3.89355469 C10.5283203,4.16894531 10.3730469,4.57617188 10.3183594,5.11523438 Z" id="Shape"></path>
            <path d="M19.4238281,8.22070312 L18.2636719,6.515625 L17.0742188,8.22070312 C16.9023438,8.45898438 16.7568359,8.62890625 16.6376953,8.73046875 C16.5185547,8.83203125 16.3671875,8.8828125 16.1835938,8.8828125 C15.9804688,8.8828125 15.8076172,8.81933594 15.6650391,8.69238281 C15.5224609,8.56542969 15.4511719,8.41992188 15.4511719,8.25585938 C15.4511719,8.08789062 15.5605469,7.84765625 15.7792969,7.53515625 L17.2265625,5.4609375 L15.9433594,3.73242188 C15.7207031,3.44726562 15.609375,3.19921875 15.609375,2.98828125 C15.609375,2.82421875 15.6757812,2.68164062 15.8085938,2.56054688 C15.9414062,2.43945312 16.1152344,2.37890625 16.3300781,2.37890625 C16.5175781,2.37890625 16.6728516,2.43164062 16.7958984,2.53710938 C16.9189453,2.64257812 17.0625,2.80859375 17.2265625,3.03515625 L18.2636719,4.453125 L19.2714844,3.03515625 C19.4394531,2.80078125 19.5849609,2.6328125 19.7080078,2.53125 C19.8310547,2.4296875 19.984375,2.37890625 20.1679688,2.37890625 C20.3789062,2.37890625 20.5537109,2.43847656 20.6923828,2.55761719 C20.8310547,2.67675781 20.9003906,2.8203125 20.9003906,2.98828125 C20.9003906,3.109375 20.8720703,3.22558594 20.8154297,3.33691406 C20.7587891,3.44824219 20.671875,3.58007812 20.5546875,3.73242188 L19.2714844,5.4609375 L20.71875,7.53515625 C20.9453125,7.859375 21.0585938,8.10351562 21.0585938,8.26757812 C21.0585938,8.43554688 20.9882812,8.58007812 20.8476562,8.70117188 C20.7070312,8.82226562 20.5332031,8.8828125 20.3261719,8.8828125 C20.1425781,8.8828125 19.9873047,8.83007812 19.8603516,8.72460938 C19.7333984,8.61914062 19.5878906,8.45117188 19.4238281,8.22070312 Z" id="Path"></path>
            <path d="M22.2949219,2.51953125 L22.4707031,2.51953125 L22.4707031,1.55859375 C22.4707031,1.30078125 22.4775391,1.09863281 22.4912109,0.952148438 C22.5048828,0.805664062 22.5429688,0.6796875 22.6054688,0.57421875 C22.6679688,0.46484375 22.7578125,0.375976562 22.875,0.307617188 C22.9921875,0.239257812 23.1230469,0.205078125 23.2675781,0.205078125 C23.4707031,0.205078125 23.6542969,0.28125 23.8183594,0.43359375 C23.9277344,0.53515625 23.9970703,0.659179688 24.0263672,0.805664062 C24.0556641,0.952148438 24.0703125,1.16015625 24.0703125,1.4296875 L24.0703125,2.51953125 L24.65625,2.51953125 C24.8828125,2.51953125 25.0556641,2.57324219 25.1748047,2.68066406 C25.2939453,2.78808594 25.3535156,2.92578125 25.3535156,3.09375 C25.3535156,3.30859375 25.2685547,3.45898438 25.0986328,3.54492188 C24.9287109,3.63085938 24.6855469,3.67382812 24.3691406,3.67382812 L24.0703125,3.67382812 L24.0703125,6.61523438 C24.0703125,6.86523438 24.0791016,7.05761719 24.0966797,7.19238281 C24.1142578,7.32714844 24.1611328,7.43652344 24.2373047,7.52050781 C24.3134766,7.60449219 24.4375,7.64648438 24.609375,7.64648438 C24.703125,7.64648438 24.8300781,7.62988281 24.9902344,7.59667969 C25.1503906,7.56347656 25.2753906,7.546875 25.3652344,7.546875 C25.4941406,7.546875 25.6103516,7.59863281 25.7138672,7.70214844 C25.8173828,7.80566406 25.8691406,7.93359375 25.8691406,8.0859375 C25.8691406,8.34375 25.7285156,8.54101562 25.4472656,8.67773438 C25.1660156,8.81445312 24.7617188,8.8828125 24.234375,8.8828125 C23.734375,8.8828125 23.3554688,8.79882812 23.0976562,8.63085938 C22.8398438,8.46289062 22.6708984,8.23046875 22.5908203,7.93359375 C22.5107422,7.63671875 22.4707031,7.24023438 22.4707031,6.74414062 L22.4707031,3.67382812 L22.2597656,3.67382812 C22.0292969,3.67382812 21.8535156,3.61914062 21.7324219,3.50976562 C21.6113281,3.40039062 21.5507812,3.26171875 21.5507812,3.09375 C21.5507812,2.92578125 21.6142578,2.78808594 21.7412109,2.68066406 C21.8681641,2.57324219 22.0527344,2.51953125 22.2949219,2.51953125 Z" id="Path"></path>
            <path d="M27.515625,8.8828125 C27.2734375,8.8828125 27.0644531,8.8046875 26.8886719,8.6484375 C26.7128906,8.4921875 26.625,8.2734375 26.625,7.9921875 C26.625,7.75390625 26.7089844,7.54882812 26.8769531,7.37695312 C27.0449219,7.20507812 27.2519531,7.11914062 27.4980469,7.11914062 C27.7441406,7.11914062 27.9541016,7.20410156 28.1279297,7.37402344 C28.3017578,7.54394531 28.3886719,7.75 28.3886719,7.9921875 C28.3886719,8.26953125 28.3017578,8.48730469 28.1279297,8.64550781 C27.9541016,8.80371094 27.75,8.8828125 27.515625,8.8828125 Z" id="Path"></path>
            <path d="M31.8222656,3.33398438 L31.8222656,8.75976562 C31.8222656,9.14648438 31.8095703,9.46191406 31.7841797,9.70605469 C31.7587891,9.95019531 31.7226562,10.1269531 31.6757812,10.2363281 C31.4101562,10.9160156 30.8457031,11.2558594 29.9824219,11.2558594 C29.4980469,11.2558594 29.1308594,11.1894531 28.8808594,11.0566406 C28.6308594,10.9238281 28.5058594,10.7304688 28.5058594,10.4765625 C28.5058594,10.2890625 28.5625,10.1357422 28.6757812,10.0166016 C28.7890625,9.89746094 28.9375,9.83789062 29.1210938,9.83789062 C29.1445312,9.83789062 29.1826172,9.84082031 29.2353516,9.84667969 C29.2880859,9.85253906 29.3662109,9.859375 29.4697266,9.8671875 C29.5732422,9.875 29.6445312,9.87890625 29.6835938,9.87890625 C29.8984375,9.87890625 30.0419922,9.79492188 30.1142578,9.62695312 C30.1865234,9.45898438 30.2226562,9.15820312 30.2226562,8.72460938 L30.2226562,3.33398438 C30.2226562,3.01757812 30.296875,2.77929688 30.4453125,2.61914062 C30.59375,2.45898438 30.7890625,2.37890625 31.03125,2.37890625 C31.265625,2.37890625 31.4560547,2.45800781 31.6025391,2.61621094 C31.7490234,2.77441406 31.8222656,3.01367188 31.8222656,3.33398438 Z M31.03125,1.63476562 C30.8085938,1.63476562 30.6181641,1.56640625 30.4599609,1.4296875 C30.3017578,1.29296875 30.2226562,1.09960938 30.2226562,0.849609375 C30.2226562,0.623046875 30.3037109,0.436523438 30.4658203,0.290039062 C30.6279297,0.143554688 30.8164062,0.0703125 31.03125,0.0703125 C31.2382812,0.0703125 31.421875,0.13671875 31.5820312,0.26953125 C31.7421875,0.40234375 31.8222656,0.595703125 31.8222656,0.849609375 C31.8222656,1.09570312 31.7441406,1.28808594 31.5878906,1.42675781 C31.4316406,1.56542969 31.2460938,1.63476562 31.03125,1.63476562 Z" id="Shape"></path>
            <path d="M38.6132812,6.79101562 C38.6132812,7.23242188 38.5058594,7.61035156 38.2910156,7.92480469 C38.0761719,8.23925781 37.7587891,8.47753906 37.3388672,8.63964844 C36.9189453,8.80175781 36.4082031,8.8828125 35.8066406,8.8828125 C35.2324219,8.8828125 34.7402344,8.79492188 34.3300781,8.61914062 C33.9199219,8.44335938 33.6171875,8.22363281 33.421875,7.95996094 C33.2265625,7.69628906 33.1289062,7.43164062 33.1289062,7.16601562 C33.1289062,6.99023438 33.1914062,6.83984375 33.3164062,6.71484375 C33.4414062,6.58984375 33.5996094,6.52734375 33.7910156,6.52734375 C33.9589844,6.52734375 34.0878906,6.56835938 34.1777344,6.65039062 C34.2675781,6.73242188 34.3535156,6.84765625 34.4355469,6.99609375 C34.5996094,7.28125 34.7958984,7.49414062 35.0244141,7.63476562 C35.2529297,7.77539062 35.5644531,7.84570312 35.9589844,7.84570312 C36.2792969,7.84570312 36.5419922,7.77441406 36.7470703,7.63183594 C36.9521484,7.48925781 37.0546875,7.32617188 37.0546875,7.14257812 C37.0546875,6.86132812 36.9482422,6.65625 36.7353516,6.52734375 C36.5224609,6.3984375 36.171875,6.27539062 35.6835938,6.15820312 C35.1328125,6.02148438 34.6845703,5.87792969 34.3388672,5.72753906 C33.9931641,5.57714844 33.7167969,5.37890625 33.5097656,5.1328125 C33.3027344,4.88671875 33.1992188,4.58398438 33.1992188,4.22460938 C33.1992188,3.90429688 33.2949219,3.6015625 33.4863281,3.31640625 C33.6777344,3.03125 33.9599609,2.80371094 34.3330078,2.63378906 C34.7060547,2.46386719 35.15625,2.37890625 35.6835938,2.37890625 C36.0976562,2.37890625 36.4697266,2.421875 36.7998047,2.5078125 C37.1298828,2.59375 37.4052734,2.70898438 37.6259766,2.85351562 C37.8466797,2.99804688 38.0146484,3.15820312 38.1298828,3.33398438 C38.2451172,3.50976562 38.3027344,3.68164062 38.3027344,3.84960938 C38.3027344,4.03320312 38.2412109,4.18359375 38.1181641,4.30078125 C37.9951172,4.41796875 37.8203125,4.4765625 37.59375,4.4765625 C37.4296875,4.4765625 37.2900391,4.4296875 37.1748047,4.3359375 C37.0595703,4.2421875 36.9277344,4.1015625 36.7792969,3.9140625 C36.6582031,3.7578125 36.515625,3.6328125 36.3515625,3.5390625 C36.1875,3.4453125 35.9648438,3.3984375 35.6835938,3.3984375 C35.3945312,3.3984375 35.1542969,3.45996094 34.9628906,3.58300781 C34.7714844,3.70605469 34.6757812,3.859375 34.6757812,4.04296875 C34.6757812,4.2109375 34.7460938,4.34863281 34.8867188,4.45605469 C35.0273438,4.56347656 35.2167969,4.65234375 35.4550781,4.72265625 C35.6933594,4.79296875 36.0214844,4.87890625 36.4394531,4.98046875 C36.9355469,5.1015625 37.3408203,5.24609375 37.6552734,5.4140625 C37.9697266,5.58203125 38.2080078,5.78027344 38.3701172,6.00878906 C38.5322266,6.23730469 38.6132812,6.49804688 38.6132812,6.79101562 Z" id="Path"></path>
            <path d="M44.4433594,3.27539062 L44.4433594,3.46875 C44.7441406,3.09765625 45.0566406,2.82519531 45.3808594,2.65136719 C45.7050781,2.47753906 46.0722656,2.390625 46.4824219,2.390625 C46.9746094,2.390625 47.4277344,2.51757812 47.8417969,2.77148438 C48.2558594,3.02539062 48.5830078,3.39648438 48.8232422,3.88476562 C49.0634766,4.37304688 49.1835938,4.95117188 49.1835938,5.61914062 C49.1835938,6.11132812 49.1142578,6.56347656 48.9755859,6.97558594 C48.8369141,7.38769531 48.6464844,7.73339844 48.4042969,8.01269531 C48.1621094,8.29199219 47.8759766,8.50683594 47.5458984,8.65722656 C47.2158203,8.80761719 46.8613281,8.8828125 46.4824219,8.8828125 C46.0253906,8.8828125 45.6416016,8.79101562 45.3310547,8.60742188 C45.0205078,8.42382812 44.7246094,8.15429688 44.4433594,7.79882812 L44.4433594,10.2011719 C44.4433594,10.9042969 44.1875,11.2558594 43.6757812,11.2558594 C43.375,11.2558594 43.1757812,11.1650391 43.078125,10.9833984 C42.9804688,10.8017578 42.9316406,10.5371094 42.9316406,10.1894531 L42.9316406,3.28710938 C42.9316406,2.98242188 42.9980469,2.75488281 43.1308594,2.60449219 C43.2636719,2.45410156 43.4453125,2.37890625 43.6757812,2.37890625 C43.9023438,2.37890625 44.0869141,2.45605469 44.2294922,2.61035156 C44.3720703,2.76464844 44.4433594,2.98632812 44.4433594,3.27539062 Z M47.578125,5.6015625 C47.578125,5.1796875 47.5136719,4.81738281 47.3847656,4.51464844 C47.2558594,4.21191406 47.0771484,3.97949219 46.8486328,3.81738281 C46.6201172,3.65527344 46.3671875,3.57421875 46.0898438,3.57421875 C45.6484375,3.57421875 45.2763672,3.74804688 44.9736328,4.09570312 C44.6708984,4.44335938 44.5195312,4.95507812 44.5195312,5.63085938 C44.5195312,6.26757812 44.6699219,6.76269531 44.9707031,7.11621094 C45.2714844,7.46972656 45.6445312,7.64648438 46.0898438,7.64648438 C46.3554688,7.64648438 46.6015625,7.56933594 46.828125,7.41503906 C47.0546875,7.26074219 47.2363281,7.02929688 47.3730469,6.72070312 C47.5097656,6.41210938 47.578125,6.0390625 47.578125,5.6015625 Z" id="Shape"></path>
            <path d="M50.4667969,7.91015625 L50.4667969,0.97265625 C50.4667969,0.65234375 50.5380859,0.41015625 50.6806641,0.24609375 C50.8232422,0.08203125 51.015625,0 51.2578125,0 C51.5,0 51.6953125,0.0810546875 51.84375,0.243164062 C51.9921875,0.405273438 52.0664062,0.6484375 52.0664062,0.97265625 L52.0664062,7.91015625 C52.0664062,8.234375 51.9912109,8.47753906 51.8408203,8.63964844 C51.6904297,8.80175781 51.4960938,8.8828125 51.2578125,8.8828125 C51.0234375,8.8828125 50.8330078,8.79882812 50.6865234,8.63085938 C50.5400391,8.46289062 50.4667969,8.22265625 50.4667969,7.91015625 Z" id="Path"></path>
            <path d="M57.7617188,7.98046875 C57.375,8.28125 57.0009766,8.50683594 56.6396484,8.65722656 C56.2783203,8.80761719 55.8730469,8.8828125 55.4238281,8.8828125 C55.0136719,8.8828125 54.6533203,8.80175781 54.3427734,8.63964844 C54.0322266,8.47753906 53.7929688,8.2578125 53.625,7.98046875 C53.4570312,7.703125 53.3730469,7.40234375 53.3730469,7.078125 C53.3730469,6.640625 53.5117188,6.26757812 53.7890625,5.95898438 C54.0664062,5.65039062 54.4472656,5.44335938 54.9316406,5.33789062 C55.0332031,5.31445312 55.2851562,5.26171875 55.6875,5.1796875 C56.0898438,5.09765625 56.4345703,5.02246094 56.7216797,4.95410156 C57.0087891,4.88574219 57.3203125,4.80273438 57.65625,4.70507812 C57.6367188,4.28320312 57.5517578,3.97363281 57.4013672,3.77636719 C57.2509766,3.57910156 56.9394531,3.48046875 56.4667969,3.48046875 C56.0605469,3.48046875 55.7548828,3.53710938 55.5498047,3.65039062 C55.3447266,3.76367188 55.1689453,3.93359375 55.0224609,4.16015625 C54.8759766,4.38671875 54.7724609,4.53613281 54.7119141,4.60839844 C54.6513672,4.68066406 54.5214844,4.71679688 54.3222656,4.71679688 C54.1425781,4.71679688 53.9873047,4.65917969 53.8564453,4.54394531 C53.7255859,4.42871094 53.6601562,4.28125 53.6601562,4.1015625 C53.6601562,3.8203125 53.7597656,3.546875 53.9589844,3.28125 C54.1582031,3.015625 54.46875,2.796875 54.890625,2.625 C55.3125,2.453125 55.8378906,2.3671875 56.4667969,2.3671875 C57.1699219,2.3671875 57.7226562,2.45019531 58.125,2.61621094 C58.5273438,2.78222656 58.8115234,3.04492188 58.9775391,3.40429688 C59.1435547,3.76367188 59.2265625,4.24023438 59.2265625,4.83398438 C59.2265625,5.20898438 59.2255859,5.52734375 59.2236328,5.7890625 C59.2216797,6.05078125 59.21875,6.34179688 59.2148438,6.66210938 C59.2148438,6.96289062 59.2646484,7.27636719 59.3642578,7.60253906 C59.4638672,7.92871094 59.5136719,8.13867188 59.5136719,8.23242188 C59.5136719,8.39648438 59.4365234,8.54589844 59.2822266,8.68066406 C59.1279297,8.81542969 58.953125,8.8828125 58.7578125,8.8828125 C58.59375,8.8828125 58.4316406,8.80566406 58.2714844,8.65136719 C58.1113281,8.49707031 57.9414062,8.2734375 57.7617188,7.98046875 Z M57.65625,5.66601562 C57.421875,5.75195312 57.0810547,5.84277344 56.6337891,5.93847656 C56.1865234,6.03417969 55.8769531,6.10449219 55.7050781,6.14941406 C55.5332031,6.19433594 55.3691406,6.28222656 55.2128906,6.41308594 C55.0566406,6.54394531 54.9785156,6.7265625 54.9785156,6.9609375 C54.9785156,7.203125 55.0703125,7.40917969 55.2539062,7.57910156 C55.4375,7.74902344 55.6777344,7.83398438 55.9746094,7.83398438 C56.2910156,7.83398438 56.5830078,7.76464844 56.8505859,7.62597656 C57.1181641,7.48730469 57.3144531,7.30859375 57.4394531,7.08984375 C57.5839844,6.84765625 57.65625,6.44921875 57.65625,5.89453125 L57.65625,5.66601562 Z" id="Shape"></path>
            <path d="M62.1679688,9.08203125 L62.3144531,8.72460938 L60.3457031,3.76757812 C60.2246094,3.48242188 60.1640625,3.27539062 60.1640625,3.14648438 C60.1640625,3.00976562 60.1992188,2.8828125 60.2695312,2.765625 C60.3398438,2.6484375 60.4365234,2.5546875 60.5595703,2.484375 C60.6826172,2.4140625 60.8105469,2.37890625 60.9433594,2.37890625 C61.1738281,2.37890625 61.3476562,2.45214844 61.4648438,2.59863281 C61.5820312,2.74511719 61.6855469,2.95507812 61.7753906,3.22851562 L63.1289062,7.16601562 L64.4121094,3.50390625 C64.5136719,3.20703125 64.6054688,2.97460938 64.6875,2.80664062 C64.7695312,2.63867188 64.8564453,2.52539062 64.9482422,2.46679688 C65.0400391,2.40820312 65.1699219,2.37890625 65.3378906,2.37890625 C65.4589844,2.37890625 65.5751953,2.41113281 65.6865234,2.47558594 C65.7978516,2.54003906 65.8837891,2.62695312 65.9443359,2.73632812 C66.0048828,2.84570312 66.0351562,2.9609375 66.0351562,3.08203125 C66.0195312,3.15625 65.9941406,3.26171875 65.9589844,3.3984375 C65.9238281,3.53515625 65.8808594,3.67382812 65.8300781,3.81445312 L63.7441406,9.27539062 C63.5644531,9.75585938 63.3886719,10.1328125 63.2167969,10.40625 C63.0449219,10.6796875 62.8173828,10.8896484 62.5341797,11.0361328 C62.2509766,11.1826172 61.8691406,11.2558594 61.3886719,11.2558594 C60.9199219,11.2558594 60.5683594,11.2050781 60.3339844,11.1035156 C60.0996094,11.0019531 59.9824219,10.8164062 59.9824219,10.546875 C59.9824219,10.3632812 60.0380859,10.2216797 60.1494141,10.1220703 C60.2607422,10.0224609 60.4257812,9.97265625 60.6445312,9.97265625 C60.7304688,9.97265625 60.8144531,9.984375 60.8964844,10.0078125 C60.9980469,10.03125 61.0859375,10.0429688 61.1601562,10.0429688 C61.34375,10.0429688 61.4882812,10.015625 61.59375,9.9609375 C61.6992188,9.90625 61.7939453,9.81152344 61.8779297,9.67675781 C61.9619141,9.54199219 62.0585938,9.34375 62.1679688,9.08203125 Z" id="Path"></path>
            <path d="M72.9199219,3.55078125 L72.9199219,8.19726562 C72.9199219,8.72851562 72.8632812,9.18554688 72.75,9.56835938 C72.6367188,9.95117188 72.4550781,10.2675781 72.2050781,10.5175781 C71.9550781,10.7675781 71.6279297,10.953125 71.2236328,11.0742188 C70.8193359,11.1953125 70.3164062,11.2558594 69.7148438,11.2558594 C69.1640625,11.2558594 68.671875,11.1787109 68.2382812,11.0244141 C67.8046875,10.8701172 67.4707031,10.6708984 67.2363281,10.4267578 C67.0019531,10.1826172 66.8847656,9.93164062 66.8847656,9.67382812 C66.8847656,9.47851562 66.9511719,9.31933594 67.0839844,9.19628906 C67.2167969,9.07324219 67.3769531,9.01171875 67.5644531,9.01171875 C67.7988281,9.01171875 68.0039062,9.11523438 68.1796875,9.32226562 C68.265625,9.42773438 68.3544922,9.53417969 68.4462891,9.64160156 C68.5380859,9.74902344 68.6396484,9.84082031 68.7509766,9.91699219 C68.8623047,9.99316406 68.9960938,10.0498047 69.1523438,10.0869141 C69.3085938,10.1240234 69.4882812,10.1425781 69.6914062,10.1425781 C70.1054688,10.1425781 70.4267578,10.0849609 70.6552734,9.96972656 C70.8837891,9.85449219 71.0439453,9.69335938 71.1357422,9.48632812 C71.2275391,9.27929688 71.28125,9.05761719 71.296875,8.82128906 C71.3125,8.58496094 71.3242188,8.20507812 71.3320312,7.68164062 C71.0859375,8.02539062 70.8017578,8.28710938 70.4794922,8.46679688 C70.1572266,8.64648438 69.7734375,8.73632812 69.328125,8.73632812 C68.7929688,8.73632812 68.3251953,8.59960938 67.9248047,8.32617188 C67.5244141,8.05273438 67.2167969,7.66992188 67.0019531,7.17773438 C66.7871094,6.68554688 66.6796875,6.1171875 66.6796875,5.47265625 C66.6796875,4.9921875 66.7451172,4.55859375 66.8759766,4.171875 C67.0068359,3.78515625 67.1933594,3.45898438 67.4355469,3.19335938 C67.6777344,2.92773438 67.9570312,2.72753906 68.2734375,2.59277344 C68.5898438,2.45800781 68.9375,2.390625 69.3164062,2.390625 C69.7695312,2.390625 70.1621094,2.47753906 70.4941406,2.65136719 C70.8261719,2.82519531 71.1347656,3.09765625 71.4199219,3.46875 L71.4199219,3.25195312 C71.4199219,2.97460938 71.4882812,2.75976562 71.625,2.60742188 C71.7617188,2.45507812 71.9375,2.37890625 72.1523438,2.37890625 C72.4609375,2.37890625 72.6660156,2.47949219 72.7675781,2.68066406 C72.8691406,2.88183594 72.9199219,3.171875 72.9199219,3.55078125 Z M68.2851562,5.578125 C68.2851562,6.2265625 68.4267578,6.71679688 68.7099609,7.04882812 C68.9931641,7.38085938 69.359375,7.546875 69.8085938,7.546875 C70.0742188,7.546875 70.3251953,7.47558594 70.5615234,7.33300781 C70.7978516,7.19042969 70.9902344,6.97558594 71.1386719,6.68847656 C71.2871094,6.40136719 71.3613281,6.05273438 71.3613281,5.64257812 C71.3613281,4.99023438 71.2177734,4.48242188 70.9306641,4.11914062 C70.6435547,3.75585938 70.265625,3.57421875 69.796875,3.57421875 C69.3398438,3.57421875 68.9736328,3.74804688 68.6982422,4.09570312 C68.4228516,4.44335938 68.2851562,4.9375 68.2851562,5.578125 Z" id="Shape"></path>
            <path d="M75.9667969,6.57421875 L75.9667969,7.91015625 C75.9667969,8.234375 75.890625,8.47753906 75.7382812,8.63964844 C75.5859375,8.80175781 75.3925781,8.8828125 75.1582031,8.8828125 C74.9277344,8.8828125 74.7382812,8.80078125 74.5898438,8.63671875 C74.4414062,8.47265625 74.3671875,8.23046875 74.3671875,7.91015625 L74.3671875,3.45703125 C74.3671875,2.73828125 74.6269531,2.37890625 75.1464844,2.37890625 C75.4121094,2.37890625 75.6035156,2.46289062 75.7207031,2.63085938 C75.8378906,2.79882812 75.9023438,3.046875 75.9140625,3.375 C76.1054688,3.046875 76.3017578,2.79882812 76.5029297,2.63085938 C76.7041016,2.46289062 76.9726562,2.37890625 77.3085938,2.37890625 C77.6445312,2.37890625 77.9707031,2.46289062 78.2871094,2.63085938 C78.6035156,2.79882812 78.7617188,3.02148438 78.7617188,3.29882812 C78.7617188,3.49414062 78.6943359,3.65527344 78.5595703,3.78222656 C78.4248047,3.90917969 78.2792969,3.97265625 78.1230469,3.97265625 C78.0644531,3.97265625 77.9228516,3.93652344 77.6982422,3.86425781 C77.4736328,3.79199219 77.2753906,3.75585938 77.1035156,3.75585938 C76.8691406,3.75585938 76.6777344,3.81738281 76.5292969,3.94042969 C76.3808594,4.06347656 76.265625,4.24609375 76.1835938,4.48828125 C76.1015625,4.73046875 76.0449219,5.01855469 76.0136719,5.35253906 C75.9824219,5.68652344 75.9667969,6.09375 75.9667969,6.57421875 Z" id="Path"></path>
            <path d="M85.1660156,5.63085938 C85.1660156,6.10742188 85.0917969,6.546875 84.9433594,6.94921875 C84.7949219,7.3515625 84.5800781,7.69726562 84.2988281,7.98632812 C84.0175781,8.27539062 83.6816406,8.49707031 83.2910156,8.65136719 C82.9003906,8.80566406 82.4609375,8.8828125 81.9726562,8.8828125 C81.4882812,8.8828125 81.0527344,8.8046875 80.6660156,8.6484375 C80.2792969,8.4921875 79.9443359,8.26855469 79.6611328,7.97753906 C79.3779297,7.68652344 79.1630859,7.34277344 79.0166016,6.94628906 C78.8701172,6.54980469 78.796875,6.11132812 78.796875,5.63085938 C78.796875,5.14648438 78.8710938,4.703125 79.0195312,4.30078125 C79.1679688,3.8984375 79.3808594,3.5546875 79.6582031,3.26953125 C79.9355469,2.984375 80.2714844,2.76464844 80.6660156,2.61035156 C81.0605469,2.45605469 81.4960938,2.37890625 81.9726562,2.37890625 C82.4570312,2.37890625 82.8964844,2.45703125 83.2910156,2.61328125 C83.6855469,2.76953125 84.0234375,2.9921875 84.3046875,3.28125 C84.5859375,3.5703125 84.7998047,3.9140625 84.9462891,4.3125 C85.0927734,4.7109375 85.1660156,5.15039062 85.1660156,5.63085938 Z M83.5605469,5.63085938 C83.5605469,4.97851562 83.4169922,4.47070312 83.1298828,4.10742188 C82.8427734,3.74414062 82.4570312,3.5625 81.9726562,3.5625 C81.6601562,3.5625 81.3847656,3.64355469 81.1464844,3.80566406 C80.9082031,3.96777344 80.7246094,4.20703125 80.5957031,4.5234375 C80.4667969,4.83984375 80.4023438,5.20898438 80.4023438,5.63085938 C80.4023438,6.04882812 80.4658203,6.4140625 80.5927734,6.7265625 C80.7197266,7.0390625 80.9013672,7.27832031 81.1376953,7.44433594 C81.3740234,7.61035156 81.6523438,7.69335938 81.9726562,7.69335938 C82.4570312,7.69335938 82.8427734,7.51074219 83.1298828,7.14550781 C83.4169922,6.78027344 83.5605469,6.27539062 83.5605469,5.63085938 Z" id="Shape"></path>
            <path d="M90.5800781,7.98046875 L90.5800781,7.77539062 C90.3886719,8.01757812 90.1875,8.22070312 89.9765625,8.38476562 C89.765625,8.54882812 89.5351562,8.67089844 89.2851562,8.75097656 C89.0351562,8.83105469 88.75,8.87109375 88.4296875,8.87109375 C88.0429688,8.87109375 87.6962891,8.79101562 87.3896484,8.63085938 C87.0830078,8.47070312 86.8457031,8.25 86.6777344,7.96875 C86.4785156,7.62890625 86.3789062,7.140625 86.3789062,6.50390625 L86.3789062,3.33398438 C86.3789062,3.01367188 86.4511719,2.77441406 86.5957031,2.61621094 C86.7402344,2.45800781 86.9316406,2.37890625 87.1699219,2.37890625 C87.4121094,2.37890625 87.6074219,2.45898438 87.7558594,2.61914062 C87.9042969,2.77929688 87.9785156,3.01757812 87.9785156,3.33398438 L87.9785156,5.89453125 C87.9785156,6.265625 88.0097656,6.57714844 88.0722656,6.82910156 C88.1347656,7.08105469 88.2470703,7.27832031 88.4091797,7.42089844 C88.5712891,7.56347656 88.7910156,7.63476562 89.0683594,7.63476562 C89.3378906,7.63476562 89.5917969,7.5546875 89.8300781,7.39453125 C90.0683594,7.234375 90.2421875,7.02539062 90.3515625,6.76757812 C90.4414062,6.54101562 90.4863281,6.04492188 90.4863281,5.27929688 L90.4863281,3.33398438 C90.4863281,3.01757812 90.5605469,2.77929688 90.7089844,2.61914062 C90.8574219,2.45898438 91.0507812,2.37890625 91.2890625,2.37890625 C91.5273438,2.37890625 91.71875,2.45800781 91.8632812,2.61621094 C92.0078125,2.77441406 92.0800781,3.01367188 92.0800781,3.33398438 L92.0800781,7.96875 C92.0800781,8.2734375 92.0107422,8.50195312 91.8720703,8.65429688 C91.7333984,8.80664062 91.5546875,8.8828125 91.3359375,8.8828125 C91.1171875,8.8828125 90.9365234,8.80371094 90.7939453,8.64550781 C90.6513672,8.48730469 90.5800781,8.265625 90.5800781,7.98046875 Z" id="Path"></path>
            <path d="M95.1269531,3.26367188 L95.1269531,3.45703125 C95.4082031,3.0859375 95.7158203,2.81347656 96.0498047,2.63964844 C96.3837891,2.46582031 96.7675781,2.37890625 97.2011719,2.37890625 C97.6230469,2.37890625 98,2.47070312 98.3320312,2.65429688 C98.6640625,2.83789062 98.9121094,3.09765625 99.0761719,3.43359375 C99.1816406,3.62890625 99.25,3.83984375 99.28125,4.06640625 C99.3125,4.29296875 99.328125,4.58203125 99.328125,4.93359375 L99.328125,7.91015625 C99.328125,8.23046875 99.2548828,8.47265625 99.1083984,8.63671875 C98.9619141,8.80078125 98.7714844,8.8828125 98.5371094,8.8828125 C98.2988281,8.8828125 98.1054688,8.79882812 97.9570312,8.63085938 C97.8085938,8.46289062 97.734375,8.22265625 97.734375,7.91015625 L97.734375,5.24414062 C97.734375,4.71679688 97.6611328,4.31347656 97.5146484,4.03417969 C97.3681641,3.75488281 97.0761719,3.61523438 96.6386719,3.61523438 C96.3535156,3.61523438 96.09375,3.70019531 95.859375,3.87011719 C95.625,4.04003906 95.453125,4.2734375 95.34375,4.5703125 C95.265625,4.80859375 95.2265625,5.25390625 95.2265625,5.90625 L95.2265625,7.91015625 C95.2265625,8.234375 95.1513672,8.47753906 95.0009766,8.63964844 C94.8505859,8.80175781 94.65625,8.8828125 94.4179688,8.8828125 C94.1875,8.8828125 93.9980469,8.79882812 93.8496094,8.63085938 C93.7011719,8.46289062 93.6269531,8.22265625 93.6269531,7.91015625 L93.6269531,3.28710938 C93.6269531,2.98242188 93.6933594,2.75488281 93.8261719,2.60449219 C93.9589844,2.45410156 94.140625,2.37890625 94.3710938,2.37890625 C94.5117188,2.37890625 94.6386719,2.41210938 94.7519531,2.47851562 C94.8652344,2.54492188 94.9560547,2.64453125 95.0244141,2.77734375 C95.0927734,2.91015625 95.1269531,3.07226562 95.1269531,3.26367188 Z" id="Path"></path>
            <path d="M105.304688,7.96875 L105.304688,7.81054688 C105.089844,8.05664062 104.87793,8.25683594 104.668945,8.41113281 C104.459961,8.56542969 104.233398,8.68261719 103.989258,8.76269531 C103.745117,8.84277344 103.478516,8.8828125 103.189453,8.8828125 C102.806641,8.8828125 102.452148,8.80175781 102.125977,8.63964844 C101.799805,8.47753906 101.517578,8.24609375 101.279297,7.9453125 C101.041016,7.64453125 100.860352,7.29101563 100.737305,6.88476562 C100.614258,6.47851562 100.552734,6.0390625 100.552734,5.56640625 C100.552734,4.56640625 100.796875,3.78710938 101.285156,3.22851562 C101.773438,2.66992188 102.416016,2.390625 103.212891,2.390625 C103.673828,2.390625 104.0625,2.46972656 104.378906,2.62792969 C104.695312,2.78613281 105.003906,3.02929688 105.304688,3.35742187 L105.304688,0.99609375 C105.304688,0.66796875 105.370117,0.419921875 105.500977,0.251953125 C105.631836,0.083984375 105.818359,0 106.060547,0 C106.302734,0 106.489258,0.0771484375 106.620117,0.231445312 C106.750977,0.385742188 106.816406,0.61328125 106.816406,0.9140625 L106.816406,7.96875 C106.816406,8.2734375 106.746094,8.50195312 106.605469,8.65429688 C106.464844,8.80664062 106.283203,8.8828125 106.060547,8.8828125 C105.841797,8.8828125 105.661133,8.80371094 105.518555,8.64550781 C105.375977,8.48730469 105.304688,8.26171875 105.304688,7.96875 Z M102.158203,5.61914062 C102.158203,6.05273438 102.225586,6.421875 102.360352,6.7265625 C102.495117,7.03125 102.679688,7.26074219 102.914062,7.41503906 C103.148438,7.56933594 103.404297,7.64648438 103.681641,7.64648438 C103.962891,7.64648438 104.219727,7.57324219 104.452148,7.42675781 C104.68457,7.28027344 104.870117,7.05566406 105.008789,6.75292969 C105.147461,6.45019531 105.216797,6.07226562 105.216797,5.61914062 C105.216797,5.19335938 105.147461,4.82714844 105.008789,4.52050781 C104.870117,4.21386719 104.682617,3.97949219 104.446289,3.81738281 C104.209961,3.65527344 103.951172,3.57421875 103.669922,3.57421875 C103.376953,3.57421875 103.115234,3.65722656 102.884766,3.82324219 C102.654297,3.98925781 102.475586,4.22753906 102.348633,4.53808594 C102.22168,4.84863281 102.158203,5.20898438 102.158203,5.61914062 Z" id="Shape"></path>
        </g>
    </g>
</svg>